<svg xmlns="http://www.w3.org/2000/svg" xmlns:xlink="http://www.w3.org/1999/xlink" width="300" zoomAndPan="magnify" viewBox="0 0 224.87999 225" height="300" preserveAspectRatio="xMidYMid meet" version="1.0"><defs><clipPath id="4b6c854808"><path d="M 28.476562 67.476562 L 32.769531 67.476562 L 32.769531 71.121094 L 28.476562 71.121094 Z M 28.476562 67.476562 " clip-rule="nonzero"/></clipPath><clipPath id="571cdfd0c9"><path d="M 32.757812 68.796875 C 30.808594 71.796875 29.007812 71.273438 28.632812 70.597656 C 28.261719 69.996094 28.632812 68.125 29.234375 67.675781 C 29.757812 67.222656 32.15625 67.824219 32.15625 67.824219 " clip-rule="nonzero"/></clipPath><clipPath id="81d5d9286b"><path d="M 0.476562 0.476562 L 4.769531 0.476562 L 4.769531 4.121094 L 0.476562 4.121094 Z M 0.476562 0.476562 " clip-rule="nonzero"/></clipPath><clipPath id="c417c12b7a"><path d="M 4.757812 1.796875 C 2.808594 4.796875 1.007812 4.273438 0.632812 3.597656 C 0.261719 2.996094 0.632812 1.125 1.234375 0.675781 C 1.757812 0.222656 4.15625 0.824219 4.15625 0.824219 " clip-rule="nonzero"/></clipPath><clipPath id="b8be34586f"><rect x="0" width="5" y="0" height="5"/></clipPath><clipPath id="11cfb05d48"><path d="M 2 15 L 224.761719 15 L 224.761719 209.855469 L 2 209.855469 Z M 2 15 " clip-rule="nonzero"/></clipPath></defs><g clip-path="url(#4b6c854808)"><g clip-path="url(#571cdfd0c9)"><g transform="matrix(1, 0, 0, 1, 28, 67)"><g clip-path="url(#b8be34586f)"><g clip-path="url(#81d5d9286b)"><g clip-path="url(#c417c12b7a)"><rect x="-77.473598" width="323.827186" fill="#e7191f" height="324" y="-116.5" fill-opacity="1"/></g></g></g></g></g></g><g clip-path="url(#11cfb05d48)"><path fill="#737373" d="M 183.4375 128.324219 L 199.167969 197.539062 C 199.785156 200.242188 197.742188 202.800781 194.96875 202.800781 L 98.859375 202.800781 C 96.082031 202.800781 94.042969 200.246094 94.65625 197.539062 L 110.386719 128.324219 C 111.117188 125.132812 113.804688 122.984375 117.082031 122.984375 L 128.8125 122.984375 L 128.8125 132.855469 C 128.8125 134.714844 130.320312 136.226562 132.183594 136.226562 C 134.042969 136.226562 135.554688 134.714844 135.554688 132.855469 L 135.554688 122.984375 L 158.273438 122.984375 L 158.273438 132.855469 C 158.273438 134.714844 159.78125 136.226562 161.640625 136.226562 C 163.507812 136.226562 165.011719 134.714844 165.011719 132.855469 L 165.011719 122.984375 L 176.742188 122.984375 C 180.019531 122.984375 182.710938 125.132812 183.4375 128.324219 Z M 158.273438 116.242188 L 135.554688 116.242188 L 135.554688 111.40625 C 135.554688 105.144531 140.648438 100.046875 146.910156 100.046875 C 153.175781 100.046875 158.273438 105.144531 158.273438 111.40625 Z M 80.902344 166.8125 L 94.730469 166.8125 L 103.8125 126.832031 C 105.234375 120.597656 110.6875 116.242188 117.078125 116.242188 L 128.8125 116.242188 L 128.8125 111.40625 C 128.8125 101.429688 136.929688 93.304688 146.910156 93.304688 C 156.890625 93.304688 165.011719 101.429688 165.011719 111.40625 L 165.011719 116.242188 L 171.660156 116.242188 L 171.660156 74.222656 C 171.660156 71.660156 174.421875 70.027344 176.667969 71.273438 L 201.503906 85.074219 L 216.667969 60.742188 L 169.597656 21.933594 L 150.464844 21.933594 C 148.792969 35.804688 136.949219 46.601562 122.632812 46.601562 C 108.320312 46.601562 96.476562 35.804688 94.804688 21.933594 L 75.671875 21.933594 L 28.601562 60.742188 L 43.765625 85.074219 L 68.605469 71.273438 C 70.847656 70.027344 73.609375 71.660156 73.609375 74.222656 L 73.609375 147.011719 C 74.796875 148.804688 75.863281 150.707031 76.804688 152.734375 C 78.757812 156.96875 80.132812 161.722656 80.902344 166.8125 Z M 61.878906 177.738281 C 62.199219 162.65625 58.019531 148.089844 50.453125 137.53125 C 51.925781 137.980469 53.367188 138.539062 54.757812 139.214844 C 71.601562 147.433594 74.75 164.730469 74.878906 175.90625 C 70.664062 176.671875 66.3125 177.28125 61.878906 177.738281 Z M 71.3125 198.730469 C 51.574219 202.894531 31.761719 202.894531 12.363281 198.738281 C 10.683594 193.605469 9.566406 188.191406 9.074219 182.804688 C 29.898438 186.382812 53.773438 186.382812 74.597656 182.804688 C 74.105469 188.1875 72.988281 193.601562 71.3125 198.730469 Z M 8.796875 175.90625 C 8.921875 164.730469 12.074219 147.433594 28.917969 139.214844 C 30.304688 138.539062 31.746094 137.980469 33.226562 137.53125 C 25.65625 148.089844 21.472656 162.65625 21.792969 177.738281 C 17.359375 177.28125 13.011719 176.671875 8.796875 175.90625 Z M 55.125 178.3125 C 46.335938 178.898438 37.335938 178.898438 28.550781 178.3125 C 28.027344 162.378906 32.984375 147.121094 41.839844 137.585938 C 50.695312 147.121094 55.652344 162.378906 55.125 178.3125 Z M 201.03125 92.523438 C 202.597656 93.394531 204.578125 92.882812 205.523438 91.359375 L 223.953125 61.800781 C 224.847656 60.371094 224.542969 58.492188 223.234375 57.417969 L 172.949219 15.960938 C 172.347656 15.464844 171.589844 15.195312 170.804688 15.195312 L 147.296875 15.195312 C 145.4375 15.195312 143.929688 16.707031 143.929688 18.566406 C 143.929688 30.308594 134.375 39.859375 122.632812 39.859375 C 110.894531 39.859375 101.34375 30.308594 101.34375 18.566406 C 101.34375 16.707031 99.832031 15.195312 97.972656 15.195312 L 74.464844 15.195312 C 73.679688 15.195312 72.921875 15.464844 72.320312 15.960938 L 22.039062 57.417969 C 20.730469 58.492188 20.425781 60.371094 21.320312 61.800781 L 39.746094 91.359375 C 40.695312 92.882812 42.667969 93.394531 44.238281 92.523438 L 66.871094 79.945312 L 66.871094 139.25 C 55.558594 129.226562 39.75 126.429688 25.960938 133.160156 C 17.359375 137.355469 10.933594 143.941406 6.875 152.734375 C -0.0078125 167.625 1.039062 187.09375 6.613281 202.753906 C 7 203.839844 7.917969 204.65625 9.039062 204.910156 C 30.824219 209.859375 52.753906 209.792969 74.625 204.910156 C 75.753906 204.65625 76.675781 203.84375 77.0625 202.753906 C 80.324219 193.578125 82 183.277344 81.558594 173.550781 L 93.199219 173.550781 L 88.085938 196.039062 C 86.515625 202.949219 91.777344 209.539062 98.859375 209.539062 L 194.96875 209.539062 C 198.359375 209.539062 201.507812 208.023438 203.613281 205.390625 C 205.714844 202.757812 206.492188 199.347656 205.742188 196.039062 L 190.011719 126.832031 C 188.714844 121.144531 184.058594 117.019531 178.398438 116.339844 L 178.398438 79.945312 Z M 201.03125 92.523438 " fill-opacity="1" fill-rule="evenodd"/></g></svg>