<svg xmlns="http://www.w3.org/2000/svg" xmlns:xlink="http://www.w3.org/1999/xlink" width="300" zoomAndPan="magnify" viewBox="0 0 224.87999 225" height="300" preserveAspectRatio="xMidYMid meet" version="1.0"><defs><clipPath id="3735ad1e6e"><path d="M 2.390625 66.761719 L 6.683594 66.761719 L 6.683594 70.445312 L 2.390625 70.445312 Z M 2.390625 66.761719 " clip-rule="nonzero"/></clipPath><clipPath id="0ddf4b9298"><path d="M 6.671875 68.046875 C 4.722656 71.121094 2.921875 70.523438 2.546875 69.921875 C 2.175781 69.25 2.546875 67.449219 3.148438 67 C 3.671875 66.472656 6.070312 67.148438 6.070312 67.148438 " clip-rule="nonzero"/></clipPath><clipPath id="ba20fbc451"><path d="M 0.390625 0.761719 L 4.683594 0.761719 L 4.683594 4.445312 L 0.390625 4.445312 Z M 0.390625 0.761719 " clip-rule="nonzero"/></clipPath><clipPath id="4d0924a7ee"><path d="M 4.671875 2.046875 C 2.722656 5.121094 0.921875 4.523438 0.546875 3.921875 C 0.175781 3.25 0.546875 1.449219 1.148438 1 C 1.671875 0.472656 4.070312 1.148438 4.070312 1.148438 " clip-rule="nonzero"/></clipPath><clipPath id="8d0b5a9c6d"><rect x="0" width="5" y="0" height="5"/></clipPath><clipPath id="987a2344b1"><path d="M 0 0.0585938 L 224.761719 0.0585938 L 224.761719 224.9375 L 0 224.9375 Z M 0 0.0585938 " clip-rule="nonzero"/></clipPath></defs><g clip-path="url(#3735ad1e6e)"><g clip-path="url(#0ddf4b9298)"><g transform="matrix(1, 0, 0, 1, 2, 66)"><g clip-path="url(#8d0b5a9c6d)"><g clip-path="url(#ba20fbc451)"><g clip-path="url(#4d0924a7ee)"><rect x="-51.473598" width="323.827186" fill="#e7191f" height="324" y="-115.5" fill-opacity="1"/></g></g></g></g></g></g><path fill="#737373" d="M 52.472656 138.734375 C 50.40625 138.734375 48.722656 140.417969 48.722656 142.484375 L 48.722656 161.222656 C 48.722656 163.289062 50.40625 164.972656 52.472656 164.972656 C 54.535156 164.972656 56.21875 163.289062 56.21875 161.222656 L 56.21875 142.484375 C 56.21875 140.417969 54.535156 138.734375 52.472656 138.734375 " fill-opacity="1" fill-rule="nonzero"/><g clip-path="url(#987a2344b1)"><path fill="#737373" d="M 217.382812 176.214844 L 82.457031 176.214844 L 82.457031 149.980469 C 82.457031 133.449219 69 119.996094 52.472656 119.996094 C 35.941406 119.996094 22.488281 133.449219 22.488281 149.980469 L 22.488281 176.214844 L 7.496094 176.214844 L 7.496094 75.019531 L 29.984375 75.019531 C 32.046875 75.019531 33.730469 73.335938 33.730469 71.273438 L 33.730469 48.785156 L 179.902344 48.785156 L 179.902344 101.257812 C 179.902344 101.316406 179.933594 101.359375 179.933594 101.402344 C 179.949219 101.839844 180.019531 102.265625 180.195312 102.675781 C 180.195312 102.691406 180.195312 102.707031 180.210938 102.71875 C 180.210938 102.734375 180.210938 102.734375 180.210938 102.734375 L 191.457031 128.972656 C 192.042969 130.347656 193.402344 131.238281 194.894531 131.238281 C 196.390625 131.238281 197.75 130.347656 198.335938 128.972656 L 209.582031 102.734375 C 209.582031 102.734375 209.582031 102.734375 209.582031 102.71875 C 209.59375 102.707031 209.59375 102.691406 209.59375 102.675781 C 209.769531 102.265625 209.84375 101.839844 209.859375 101.402344 C 209.859375 101.359375 209.886719 101.316406 209.886719 101.257812 L 209.886719 48.785156 L 217.382812 48.785156 Z M 74.960938 194.957031 C 74.960938 207.355469 64.871094 217.445312 52.472656 217.445312 C 40.070312 217.445312 29.984375 207.355469 29.984375 194.957031 L 29.984375 149.980469 C 29.984375 137.578125 40.070312 127.492188 52.472656 127.492188 C 64.871094 127.492188 74.960938 137.578125 74.960938 149.980469 Z M 26.234375 54.082031 L 26.234375 67.523438 L 12.796875 67.523438 Z M 20.9375 48.785156 L 7.496094 62.222656 L 7.496094 48.785156 Z M 187.398438 7.554688 L 202.390625 7.554688 L 202.390625 15.050781 L 187.398438 15.050781 Z M 200.460938 105.003906 L 194.894531 117.976562 L 189.332031 105.003906 Z M 202.390625 97.507812 L 187.398438 97.507812 L 187.398438 22.546875 L 202.390625 22.546875 Z M 221.132812 41.289062 L 209.886719 41.289062 L 209.886719 3.808594 C 209.886719 1.742188 208.203125 0.0585938 206.140625 0.0585938 L 183.652344 0.0585938 C 181.585938 0.0585938 179.902344 1.742188 179.902344 3.808594 L 179.902344 41.289062 L 3.746094 41.289062 C 1.683594 41.289062 0 42.972656 0 45.035156 L 0 179.964844 C 0 182.027344 1.683594 183.710938 3.746094 183.710938 L 22.488281 183.710938 L 22.488281 194.957031 C 22.488281 211.484375 35.941406 224.941406 52.472656 224.941406 C 69 224.941406 82.457031 211.484375 82.457031 194.957031 L 82.457031 183.710938 L 221.132812 183.710938 C 223.195312 183.710938 224.878906 182.027344 224.878906 179.964844 L 224.878906 45.035156 C 224.878906 42.972656 223.195312 41.289062 221.132812 41.289062 " fill-opacity="1" fill-rule="nonzero"/></g><path fill="#737373" d="M 206.140625 161.222656 L 198.644531 161.222656 C 196.578125 161.222656 194.894531 162.90625 194.894531 164.972656 C 194.894531 167.035156 196.578125 168.71875 198.644531 168.71875 L 206.140625 168.71875 C 208.203125 168.71875 209.886719 167.035156 209.886719 164.972656 C 209.886719 162.90625 208.203125 161.222656 206.140625 161.222656 " fill-opacity="1" fill-rule="nonzero"/><path fill="#737373" d="M 183.652344 161.222656 L 176.15625 161.222656 C 174.089844 161.222656 172.40625 162.90625 172.40625 164.972656 C 172.40625 167.035156 174.089844 168.71875 176.15625 168.71875 L 183.652344 168.71875 C 185.714844 168.71875 187.398438 167.035156 187.398438 164.972656 C 187.398438 162.90625 185.714844 161.222656 183.652344 161.222656 " fill-opacity="1" fill-rule="nonzero"/><path fill="#737373" d="M 152.820312 68.898438 C 151.5 67.304688 149.144531 67.054688 147.546875 68.375 L 108.808594 100.070312 L 73.714844 68.492188 C 72.425781 67.320312 70.507812 67.203125 69.074219 68.183594 L 20.351562 101.914062 C 18.652344 103.101562 18.226562 105.429688 19.398438 107.140625 C 20.128906 108.179688 21.300781 108.753906 22.488281 108.753906 C 23.234375 108.753906 23.964844 108.53125 24.625 108.09375 L 70.90625 76.042969 L 106.1875 107.785156 C 107.566406 109.03125 109.628906 109.074219 111.0625 107.902344 L 152.292969 74.171875 C 153.886719 72.867188 154.136719 70.496094 152.820312 68.898438 " fill-opacity="1" fill-rule="nonzero"/><path fill="#737373" d="M 126.699219 146.230469 L 138.675781 127.066406 L 150.652344 146.230469 Z M 141.851562 118.003906 C 140.476562 115.824219 136.875 115.824219 135.5 118.003906 L 116.757812 147.988281 C 116.042969 149.144531 115.996094 150.609375 116.65625 151.796875 C 117.316406 152.980469 118.574219 153.726562 119.9375 153.726562 L 157.414062 153.726562 C 158.777344 153.726562 160.035156 152.980469 160.695312 151.796875 C 161.355469 150.609375 161.308594 149.144531 160.59375 147.988281 L 141.851562 118.003906 " fill-opacity="1" fill-rule="nonzero"/></svg>