<svg xmlns="http://www.w3.org/2000/svg" xmlns:xlink="http://www.w3.org/1999/xlink" width="300" zoomAndPan="magnify" viewBox="0 0 224.87999 225" height="300" preserveAspectRatio="xMidYMid meet" version="1.0"><defs><clipPath id="6129a4187b"><path d="M 30.085938 19.125 L 34.34375 19.125 L 34.34375 22.769531 L 30.085938 22.769531 Z M 30.085938 19.125 " clip-rule="nonzero"/></clipPath><clipPath id="a7d8d0ea71"><path d="M 34.332031 20.449219 C 32.457031 23.449219 30.660156 22.921875 30.285156 22.25 C 29.910156 21.648438 30.207031 19.773438 30.808594 19.324219 C 31.410156 18.875 33.808594 19.476562 33.808594 19.476562 " clip-rule="nonzero"/></clipPath><clipPath id="330dbfc3b0"><path d="M 0.0859375 0.125 L 4.34375 0.125 L 4.34375 3.769531 L 0.0859375 3.769531 Z M 0.0859375 0.125 " clip-rule="nonzero"/></clipPath><clipPath id="f82336ea87"><path d="M 4.332031 1.449219 C 2.457031 4.449219 0.660156 3.921875 0.285156 3.25 C -0.0898438 2.648438 0.207031 0.773438 0.808594 0.324219 C 1.410156 -0.125 3.808594 0.476562 3.808594 0.476562 " clip-rule="nonzero"/></clipPath><clipPath id="d2f9c5e5a9"><rect x="0" width="5" y="0" height="4"/></clipPath><clipPath id="ada8851bc0"><path d="M 0 0.0585938 L 224.761719 0.0585938 L 224.761719 224.9375 L 0 224.9375 Z M 0 0.0585938 " clip-rule="nonzero"/></clipPath></defs><g clip-path="url(#6129a4187b)"><g clip-path="url(#a7d8d0ea71)"><g transform="matrix(1, 0, 0, 1, 30, 19)"><g clip-path="url(#d2f9c5e5a9)"><g clip-path="url(#330dbfc3b0)"><g clip-path="url(#f82336ea87)"><rect x="-79.473598" width="323.827186" fill="#e7191f" height="324" y="-68.5" fill-opacity="1"/></g></g></g></g></g></g><g clip-path="url(#ada8851bc0)"><path fill="#737373" d="M 84.273438 125.660156 L 72.171875 125.660156 C 70.28125 125.660156 68.738281 124.117188 68.738281 122.226562 C 68.738281 122.226562 68.738281 103.566406 68.738281 103.566406 C 68.738281 100.222656 73.84375 100.222656 73.84375 103.566406 L 73.84375 120.554688 L 84.273438 120.554688 C 87.621094 120.597656 87.621094 125.660156 84.273438 125.660156 Z M 137.390625 138.070312 L 90.964844 138.070312 C 87.664062 138.070312 87.621094 143.171875 90.964844 143.171875 C 90.964844 143.171875 137.390625 143.171875 137.390625 143.171875 C 140.738281 143.171875 140.738281 138.113281 137.390625 138.070312 Z M 96.421875 125.660156 C 94.527344 125.660156 92.988281 124.117188 92.988281 122.226562 L 92.988281 104.402344 C 92.988281 102.511719 94.527344 100.96875 96.421875 100.96875 L 107.6875 100.96875 C 109.578125 100.96875 111.121094 102.511719 111.121094 104.402344 L 111.121094 122.226562 C 111.121094 124.117188 109.578125 125.660156 107.6875 125.660156 Z M 98.09375 120.554688 L 105.972656 120.554688 L 105.972656 106.117188 L 98.09375 106.117188 Z M 224.878906 207.027344 C 224.878906 208.4375 223.734375 209.582031 222.328125 209.582031 L 195.613281 209.582031 L 195.613281 222.386719 C 195.613281 223.796875 194.46875 224.941406 193.0625 224.941406 C 191.652344 224.941406 190.511719 223.796875 190.511719 222.386719 L 190.511719 209.582031 L 34.371094 209.582031 L 34.371094 222.386719 C 34.371094 223.796875 33.226562 224.941406 31.816406 224.941406 C 30.410156 224.941406 29.265625 223.796875 29.265625 222.386719 L 29.265625 209.582031 L 2.550781 209.582031 C 1.144531 209.582031 0 208.4375 0 207.027344 C 0 205.621094 1.144531 204.476562 2.550781 204.476562 L 29.265625 204.476562 L 29.265625 23.382812 L 2.550781 23.382812 C 1.144531 23.382812 0 22.238281 0 20.832031 C 0 19.421875 1.144531 18.277344 2.550781 18.277344 L 29.265625 18.277344 L 29.265625 2.613281 C 29.265625 1.203125 30.410156 0.0585938 31.816406 0.0585938 C 33.226562 0.0585938 34.371094 1.203125 34.371094 2.613281 L 34.371094 18.277344 L 190.511719 18.277344 L 190.511719 2.613281 C 190.511719 1.203125 191.652344 0.0585938 193.0625 0.0585938 C 194.46875 0.0585938 195.613281 1.203125 195.613281 2.613281 L 195.613281 18.277344 L 222.328125 18.277344 C 223.734375 18.277344 224.878906 19.421875 224.878906 20.832031 C 224.878906 22.238281 223.734375 23.382812 222.328125 23.382812 L 195.613281 23.382812 L 195.613281 204.476562 L 222.328125 204.476562 C 223.734375 204.476562 224.878906 205.621094 224.878906 207.027344 Z M 34.371094 62.945312 L 102.933594 23.382812 L 34.371094 23.382812 Z M 102.933594 204.476562 L 34.371094 164.871094 L 34.371094 204.476562 Z M 190.511719 164.871094 L 121.945312 204.476562 L 190.511719 204.476562 Z M 190.511719 68.84375 L 112.441406 23.78125 L 34.371094 68.84375 L 34.371094 158.972656 L 112.441406 204.082031 L 190.511719 159.015625 Z M 190.511719 23.382812 L 121.945312 23.382812 L 190.511719 62.945312 Z M 113.714844 44.113281 L 172.246094 77.910156 C 173.039062 78.351562 173.523438 79.1875 173.523438 80.109375 L 173.523438 147.707031 C 173.523438 148.628906 173.039062 149.464844 172.246094 149.90625 L 113.714844 183.703125 C 113.320312 183.925781 112.878906 184.058594 112.441406 184.058594 C 112 184.058594 111.558594 183.925781 111.164062 183.703125 L 52.632812 149.90625 C 51.839844 149.464844 51.355469 148.628906 51.355469 147.707031 L 51.355469 80.109375 C 51.355469 79.1875 51.839844 78.351562 52.632812 77.910156 L 111.164062 44.113281 C 111.957031 43.671875 112.925781 43.671875 113.714844 44.113281 Z M 112.441406 49.304688 L 56.460938 81.605469 L 56.460938 146.253906 L 112.441406 178.554688 L 168.417969 146.253906 L 168.417969 81.605469 Z M 141.527344 122.269531 L 141.527344 104.445312 C 141.527344 102.554688 143.070312 101.015625 144.960938 101.015625 L 156.226562 101.015625 C 158.121094 101.015625 159.660156 102.554688 159.660156 104.445312 L 159.660156 122.269531 C 159.660156 124.160156 158.121094 125.703125 156.226562 125.703125 L 144.960938 125.703125 C 143.070312 125.660156 141.527344 124.117188 141.527344 122.269531 Z M 146.632812 120.554688 L 154.511719 120.554688 L 154.511719 106.117188 L 146.632812 106.117188 Z M 88.410156 86.050781 C 88.410156 87.460938 89.554688 88.605469 90.964844 88.605469 L 137.390625 88.605469 C 138.800781 88.605469 139.945312 87.460938 139.945312 86.050781 C 139.945312 84.644531 138.800781 83.5 137.390625 83.5 L 90.964844 83.5 C 89.554688 83.5 88.410156 84.644531 88.410156 86.050781 Z M 132.773438 106.292969 C 136.117188 106.292969 136.203125 101.277344 132.816406 101.191406 C 132.816406 101.191406 120.714844 101.058594 120.714844 101.058594 C 118.910156 101.058594 117.191406 102.597656 117.238281 104.492188 L 117.238281 122.269531 C 117.238281 124.160156 118.777344 125.703125 120.667969 125.703125 L 131.933594 125.703125 C 133.828125 125.703125 135.367188 124.160156 135.367188 122.269531 L 135.367188 114.214844 C 135.367188 112.324219 133.828125 110.785156 131.933594 110.785156 L 126.300781 110.785156 C 122.957031 110.785156 122.957031 115.886719 126.300781 115.886719 C 126.300781 115.886719 130.21875 115.886719 130.21875 115.886719 L 130.21875 120.554688 L 122.339844 120.554688 L 122.339844 106.164062 Z M 132.773438 106.292969 " fill-opacity="1" fill-rule="nonzero"/></g></svg>