<svg xmlns="http://www.w3.org/2000/svg" xmlns:xlink="http://www.w3.org/1999/xlink" width="300" zoomAndPan="magnify" viewBox="0 0 224.87999 225" height="300" preserveAspectRatio="xMidYMid meet" version="1.0"><defs><clipPath id="dd4ca67746"><path d="M 8.570312 35.882812 L 12.828125 35.882812 L 12.828125 39.523438 L 8.570312 39.523438 Z M 8.570312 35.882812 " clip-rule="nonzero"/></clipPath><clipPath id="984285b3b2"><path d="M 12.816406 37.164062 C 10.945312 40.164062 9.144531 39.640625 8.769531 39.039062 C 8.394531 38.363281 8.695312 36.566406 9.296875 36.039062 C 9.894531 35.589844 12.292969 36.265625 12.292969 36.265625 " clip-rule="nonzero"/></clipPath><clipPath id="d4f3e6848c"><path d="M 0.570312 0.882812 L 4.828125 0.882812 L 4.828125 4.523438 L 0.570312 4.523438 Z M 0.570312 0.882812 " clip-rule="nonzero"/></clipPath><clipPath id="3325c429d6"><path d="M 4.816406 2.164062 C 2.945312 5.164062 1.144531 4.640625 0.769531 4.039062 C 0.394531 3.363281 0.695312 1.566406 1.296875 1.039062 C 1.894531 0.589844 4.292969 1.265625 4.292969 1.265625 " clip-rule="nonzero"/></clipPath><clipPath id="5b1f00bb3f"><rect x="0" width="5" y="0" height="5"/></clipPath><clipPath id="185bf7b6c2"><path d="M 4.433594 6 L 220.316406 6 L 220.316406 220 L 4.433594 220 Z M 4.433594 6 " clip-rule="nonzero"/></clipPath></defs><g clip-path="url(#dd4ca67746)"><g clip-path="url(#984285b3b2)"><g transform="matrix(1, 0, 0, 1, 8, 35)"><g clip-path="url(#5b1f00bb3f)"><g clip-path="url(#d4f3e6848c)"><g clip-path="url(#3325c429d6)"><rect x="-57.473598" width="323.827186" fill="#e7191f" height="324" y="-84.5" fill-opacity="1"/></g></g></g></g></g></g><g clip-path="url(#185bf7b6c2)"><path fill="#737373" d="M 63.148438 128.007812 C 63.289062 128.566406 63.320312 129.128906 63.242188 129.699219 C 63.164062 130.265625 62.984375 130.800781 62.703125 131.300781 C 62.417969 131.800781 62.054688 132.230469 61.605469 132.59375 C 61.160156 132.953125 60.660156 133.21875 60.113281 133.386719 L 29.136719 144.8125 C 28.859375 144.886719 28.578125 144.933594 28.292969 144.953125 C 28.003906 144.972656 27.71875 144.964844 27.4375 144.925781 C 27.152344 144.890625 26.875 144.828125 26.601562 144.738281 C 26.332031 144.644531 26.070312 144.53125 25.820312 144.390625 C 25.570312 144.246094 25.339844 144.082031 25.121094 143.894531 C 24.902344 143.710938 24.707031 143.503906 24.53125 143.277344 C 24.351562 143.054688 24.199219 142.8125 24.070312 142.558594 C 23.9375 142.300781 23.835938 142.035156 23.757812 141.761719 C 23.617188 141.203125 23.585938 140.636719 23.664062 140.066406 C 23.746094 139.496094 23.925781 138.960938 24.210938 138.460938 C 24.492188 137.960938 24.859375 137.53125 25.3125 137.171875 C 25.761719 136.808594 26.261719 136.546875 26.8125 136.378906 L 57.769531 124.953125 C 58.046875 124.878906 58.328125 124.832031 58.613281 124.8125 C 58.902344 124.792969 59.1875 124.800781 59.46875 124.839844 C 59.753906 124.875 60.03125 124.9375 60.304688 125.03125 C 60.574219 125.121094 60.835938 125.238281 61.085938 125.378906 C 61.335938 125.519531 61.566406 125.683594 61.785156 125.871094 C 62.003906 126.058594 62.199219 126.265625 62.375 126.488281 C 62.554688 126.714844 62.707031 126.957031 62.835938 127.210938 C 62.96875 127.464844 63.070312 127.730469 63.148438 128.007812 Z M 27.640625 60.410156 L 58.605469 48.984375 C 59.15625 48.816406 59.65625 48.550781 60.105469 48.191406 C 60.554688 47.832031 60.921875 47.402344 61.203125 46.902344 C 61.488281 46.402344 61.667969 45.867188 61.746094 45.296875 C 61.824219 44.726562 61.796875 44.164062 61.65625 43.605469 C 61.578125 43.328125 61.472656 43.0625 61.34375 42.808594 C 61.214844 42.550781 61.0625 42.3125 60.882812 42.085938 C 60.707031 41.863281 60.511719 41.65625 60.292969 41.46875 C 60.074219 41.28125 59.84375 41.117188 59.59375 40.976562 C 59.34375 40.832031 59.082031 40.71875 58.8125 40.625 C 58.539062 40.535156 58.261719 40.472656 57.976562 40.4375 C 57.691406 40.398438 57.410156 40.390625 57.121094 40.410156 C 56.835938 40.429688 56.554688 40.476562 56.277344 40.550781 L 25.320312 51.976562 C 24.769531 52.144531 24.269531 52.410156 23.820312 52.769531 C 23.371094 53.128906 23.003906 53.558594 22.71875 54.058594 C 22.433594 54.558594 22.253906 55.09375 22.175781 55.664062 C 22.09375 56.234375 22.125 56.800781 22.265625 57.359375 C 22.34375 57.632812 22.445312 57.898438 22.578125 58.15625 C 22.707031 58.410156 22.859375 58.648438 23.039062 58.875 C 23.214844 59.101562 23.410156 59.308594 23.628906 59.492188 C 23.847656 59.679688 24.078125 59.84375 24.328125 59.984375 C 24.578125 60.128906 24.835938 60.242188 25.109375 60.335938 C 25.382812 60.425781 25.660156 60.488281 25.945312 60.523438 C 26.226562 60.5625 26.511719 60.570312 26.796875 60.550781 C 27.085938 60.53125 27.367188 60.484375 27.640625 60.410156 Z M 27.640625 85.003906 L 58.605469 73.582031 C 59.15625 73.414062 59.65625 73.152344 60.105469 72.792969 C 60.554688 72.433594 60.921875 72 61.203125 71.5 C 61.488281 71 61.667969 70.464844 61.746094 69.894531 C 61.824219 69.324219 61.796875 68.761719 61.65625 68.203125 C 61.578125 67.925781 61.476562 67.660156 61.347656 67.402344 C 61.21875 67.148438 61.066406 66.90625 60.886719 66.679688 C 60.710938 66.453125 60.515625 66.246094 60.296875 66.058594 C 60.082031 65.867188 59.847656 65.703125 59.597656 65.5625 C 59.347656 65.417969 59.089844 65.300781 58.816406 65.210938 C 58.542969 65.117188 58.265625 65.054688 57.980469 65.015625 C 57.695312 64.980469 57.410156 64.96875 57.125 64.988281 C 56.835938 65.007812 56.554688 65.054688 56.277344 65.128906 L 25.320312 76.554688 C 24.765625 76.722656 24.265625 76.988281 23.816406 77.347656 C 23.363281 77.707031 22.996094 78.136719 22.714844 78.640625 C 22.429688 79.140625 22.25 79.679688 22.171875 80.25 C 22.09375 80.824219 22.125 81.386719 22.265625 81.949219 C 22.34375 82.222656 22.445312 82.488281 22.578125 82.742188 C 22.707031 83 22.859375 83.238281 23.039062 83.464844 C 23.214844 83.691406 23.410156 83.898438 23.628906 84.082031 C 23.84375 84.269531 24.078125 84.433594 24.328125 84.578125 C 24.578125 84.71875 24.835938 84.832031 25.109375 84.925781 C 25.382812 85.015625 25.660156 85.078125 25.941406 85.117188 C 26.226562 85.152344 26.511719 85.160156 26.796875 85.140625 C 27.085938 85.125 27.367188 85.078125 27.640625 85.003906 Z M 57.78125 88.542969 L 26.8125 99.972656 C 26.261719 100.140625 25.757812 100.402344 25.308594 100.761719 C 24.859375 101.121094 24.492188 101.550781 24.207031 102.054688 C 23.921875 102.554688 23.742188 103.089844 23.664062 103.660156 C 23.585938 104.234375 23.617188 104.796875 23.757812 105.355469 C 23.835938 105.632812 23.9375 105.898438 24.070312 106.152344 C 24.199219 106.410156 24.351562 106.648438 24.53125 106.875 C 24.707031 107.101562 24.902344 107.304688 25.121094 107.492188 C 25.335938 107.679688 25.570312 107.84375 25.820312 107.984375 C 26.070312 108.128906 26.328125 108.242188 26.601562 108.335938 C 26.875 108.425781 27.152344 108.488281 27.4375 108.523438 C 27.71875 108.5625 28.003906 108.570312 28.289062 108.550781 C 28.578125 108.53125 28.859375 108.484375 29.136719 108.410156 L 60.113281 96.976562 C 60.664062 96.808594 61.160156 96.546875 61.613281 96.183594 C 62.0625 95.824219 62.425781 95.394531 62.710938 94.894531 C 62.996094 94.394531 63.175781 93.859375 63.253906 93.289062 C 63.332031 92.71875 63.300781 92.15625 63.164062 91.597656 C 63.085938 91.320312 62.980469 91.054688 62.851562 90.800781 C 62.722656 90.542969 62.566406 90.304688 62.390625 90.078125 C 62.214844 89.851562 62.015625 89.644531 61.796875 89.457031 C 61.582031 89.269531 61.347656 89.105469 61.097656 88.964844 C 60.847656 88.824219 60.585938 88.707031 60.316406 88.617188 C 60.042969 88.527344 59.765625 88.460938 59.480469 88.425781 C 59.195312 88.390625 58.910156 88.382812 58.625 88.402344 C 58.339844 88.421875 58.054688 88.46875 57.78125 88.542969 Z M 220.269531 156.878906 C 220.28125 157.230469 220.257812 157.582031 220.195312 157.929688 C 219.859375 159.074219 219.292969 160.09375 218.503906 160.992188 C 217.714844 161.886719 216.769531 162.574219 215.675781 163.050781 L 201.253906 172.355469 C 201.808594 173.742188 202.375 175.125 202.9375 176.511719 C 189.121094 177.503906 175 178.238281 160.570312 178.714844 C 157.378906 178.816406 154.203125 178.902344 151.035156 178.976562 L 143.164062 179.238281 C 141.707031 179.296875 140.25 179.324219 138.792969 179.382812 C 138.011719 179.429688 137.246094 179.546875 136.488281 179.734375 C 135.464844 179.96875 134.386719 180.289062 133.253906 180.550781 C 134.1875 182.910156 135.089844 185.242188 136.019531 187.546875 C 138.617188 194.191406 141.152344 200.636719 143.660156 207.078125 C 144.941406 210.3125 144.210938 212.0625 140.976562 213.375 C 136.605469 215.183594 132.199219 216.902344 127.800781 218.59375 C 123.894531 220.109375 122.289062 219.378906 120.746094 215.445312 C 117.453125 206.992188 114.070312 198.566406 110.835938 190.082031 C 110.765625 189.8125 110.648438 189.5625 110.488281 189.335938 C 110.324219 189.109375 110.128906 188.914062 109.898438 188.757812 C 109.667969 188.597656 109.417969 188.488281 109.148438 188.417969 C 108.878906 188.351562 108.601562 188.332031 108.324219 188.363281 C 106.929688 188.335938 105.546875 188.191406 104.175781 187.925781 C 102.808594 187.660156 101.46875 187.28125 100.164062 186.785156 C 98.859375 186.289062 97.609375 185.683594 96.410156 184.972656 C 95.210938 184.257812 94.078125 183.449219 93.019531 182.539062 C 91.960938 181.632812 90.984375 180.640625 90.097656 179.5625 C 89.210938 178.484375 88.421875 177.339844 87.730469 176.128906 C 87.039062 174.914062 86.457031 173.652344 85.988281 172.339844 C 85.515625 171.027344 85.160156 169.679688 84.917969 168.304688 C 84.882812 168.164062 84.863281 168.015625 84.859375 167.871094 C 84.308594 167.664062 83.78125 167.460938 83.230469 167.257812 C 81.558594 166.695312 79.84375 166.414062 78.082031 166.414062 C 76.324219 166.414062 74.609375 166.695312 72.9375 167.257812 C 53.113281 174.632812 33.46875 182.472656 13.730469 190.082031 C 6.589844 192.824219 5.191406 191.832031 5.160156 184.136719 C 5.101562 160.171875 5.09375 136.21875 5.132812 112.277344 C 5.132812 88.578125 5.304688 64.847656 5.011719 41.117188 C 4.941406 40.589844 4.914062 40.058594 4.941406 39.527344 C 4.964844 38.996094 5.039062 38.46875 5.160156 37.949219 C 5.28125 37.429688 5.449219 36.925781 5.660156 36.4375 C 5.875 35.949219 6.132812 35.484375 6.429688 35.042969 C 6.730469 34.601562 7.066406 34.191406 7.441406 33.808594 C 7.816406 33.429688 8.21875 33.089844 8.65625 32.78125 C 9.09375 32.476562 9.554688 32.214844 10.039062 31.992188 C 10.527344 31.773438 11.027344 31.597656 11.546875 31.46875 C 31.777344 23.832031 51.804688 15.667969 72.09375 8.234375 C 74.097656 7.578125 76.15625 7.257812 78.265625 7.273438 C 80.375 7.289062 82.429688 7.636719 84.425781 8.324219 C 103.867188 15.464844 122.992188 23.335938 142.378906 30.59375 C 143.945312 31.125 145.558594 31.390625 147.214844 31.390625 C 148.871094 31.390625 150.484375 31.125 152.054688 30.59375 C 171.875 23.191406 191.523438 15.347656 211.261719 7.710938 C 218.726562 4.824219 220.183594 5.84375 220.183594 13.890625 C 220.214844 61.554688 220.128906 109.214844 220.269531 156.878906 Z M 74.28125 152.535156 C 74.25 108.777344 74.242188 65.011719 74.25 21.238281 C 74.25 19.664062 74.074219 18.058594 73.875 15.40625 C 54.984375 22.753906 37.082031 29.894531 18.980469 36.597656 C 14.027344 38.40625 12.597656 41 12.625 46.160156 C 12.832031 89.015625 12.738281 131.867188 12.738281 174.691406 L 12.738281 181.542969 C 13.679688 181.570312 14.613281 181.503906 15.542969 181.335938 C 33.789062 174.253906 51.953125 167.054688 70.257812 160.171875 C 74.371094 158.628906 74.28125 155.859375 74.28125 152.535156 Z M 91.972656 38.195312 C 91.96875 37.882812 92 37.578125 92.0625 37.273438 C 92.128906 36.972656 92.222656 36.679688 92.351562 36.394531 C 92.480469 36.113281 92.640625 35.851562 92.828125 35.601562 C 93.015625 35.355469 93.226562 35.132812 93.464844 34.933594 C 93.699219 34.734375 93.957031 34.5625 94.230469 34.417969 C 94.507812 34.277344 94.792969 34.164062 95.09375 34.085938 C 95.394531 34.007812 95.699219 33.960938 96.007812 33.949219 C 96.316406 33.9375 96.625 33.960938 96.929688 34.015625 C 97.585938 34.085938 98.222656 34.242188 98.839844 34.484375 C 101.058594 35.496094 112.515625 40.457031 128.28125 47.296875 C 128.800781 47.339844 129.292969 47.476562 129.761719 47.707031 C 130.226562 47.941406 130.632812 48.25 130.980469 48.640625 C 131.324219 49.027344 131.585938 49.464844 131.765625 49.957031 C 131.941406 50.445312 132.023438 50.949219 132.003906 51.46875 L 132.003906 122.050781 C 134.589844 119.75 137.171875 117.453125 139.777344 115.191406 C 140.941406 114.171875 142.109375 113.152344 143.273438 112.160156 C 143.300781 89.074219 143.273438 66.003906 143.183594 42.953125 C 142.882812 41.730469 142.324219 40.636719 141.511719 39.671875 C 140.695312 38.707031 139.710938 37.976562 138.554688 37.472656 C 124.535156 31.703125 110.339844 26.308594 96.175781 20.800781 C 91.742188 19.078125 87.285156 17.359375 82.445312 15.492188 C 82.207031 17.417969 81.917969 18.527344 81.917969 19.632812 C 81.917969 64.351562 81.976562 109.042969 81.832031 153.730469 C 81.761719 154.316406 81.777344 154.898438 81.882812 155.476562 C 81.984375 156.058594 82.175781 156.609375 82.449219 157.132812 C 82.722656 157.65625 83.066406 158.125 83.484375 158.542969 C 83.898438 158.957031 84.367188 159.304688 84.890625 159.578125 C 85.296875 157.023438 86.105469 154.601562 87.320312 152.3125 C 88.535156 150.027344 90.085938 148 91.972656 146.230469 Z M 123.078125 54.339844 L 100.730469 44.75 L 100.730469 140.71875 C 104.390625 139.234375 108.015625 137.605469 111.78125 136.414062 C 116.066406 134.945312 119.898438 132.703125 123.273438 129.683594 L 123.273438 54.398438 C 123.203125 54.375 123.132812 54.355469 123.078125 54.339844 Z M 114.539062 179.296875 C 118.273438 178.246094 122 176.90625 125.761719 175.566406 C 127.511719 174.953125 129.289062 174.339844 131.070312 173.757812 C 126.722656 162.738281 122.675781 152.449219 118.535156 141.953125 C 112.386719 144.546875 106.4375 146.675781 100.785156 149.476562 C 99.578125 150.113281 98.472656 150.898438 97.46875 151.824219 C 96.464844 152.75 95.59375 153.789062 94.859375 154.941406 C 94.125 156.09375 93.554688 157.320312 93.136719 158.621094 C 92.722656 159.925781 92.484375 161.257812 92.414062 162.621094 C 92.28125 164.753906 92.523438 166.84375 93.144531 168.890625 C 93.40625 169.742188 93.738281 170.570312 94.136719 171.367188 C 94.476562 172.117188 94.875 172.839844 95.332031 173.527344 C 95.789062 174.214844 96.292969 174.863281 96.855469 175.46875 C 97.414062 176.078125 98.015625 176.636719 98.664062 177.144531 C 99.3125 177.65625 99.996094 178.113281 100.71875 178.515625 C 101.4375 178.914062 102.1875 179.257812 102.960938 179.539062 C 103.738281 179.820312 104.53125 180.039062 105.339844 180.195312 C 106.152344 180.351562 106.96875 180.441406 107.792969 180.46875 C 108.617188 180.492188 109.441406 180.453125 110.257812 180.347656 C 111.683594 180.054688 113.109375 179.703125 114.539062 179.296875 Z M 126.054688 183.757812 C 126.054688 183.726562 126.027344 183.699219 126.027344 183.667969 C 126.027344 183.640625 125.96875 183.699219 125.9375 183.699219 C 123.078125 184.835938 120.574219 185.828125 117.917969 186.90625 C 121.070312 194.835938 124.101562 202.558594 127.21875 210.460938 C 130.074219 209.292969 132.644531 208.246094 135.324219 207.164062 C 132.175781 199.265625 129.171875 191.597656 126.054688 183.757812 Z M 191.847656 169.78125 L 190.714844 166.894531 C 185 152.464844 179.402344 138.179688 173.777344 123.925781 C 172.636719 121.011719 171.472656 118.097656 170.332031 115.179688 C 168.757812 111.214844 167.183594 107.222656 165.609375 103.230469 C 165.148438 103.550781 164.769531 103.78125 164.417969 104.074219 C 160.1875 107.777344 155.953125 111.476562 151.707031 115.179688 C 151.5 115.355469 151.269531 115.558594 151.066406 115.734375 C 148.46875 118.007812 145.90625 120.28125 143.285156 122.554688 C 142.757812 123.023438 142.234375 123.460938 141.710938 123.925781 C 138.128906 127.046875 134.550781 130.15625 130.96875 133.253906 C 130.890625 133.355469 130.820312 133.464844 130.730469 133.546875 C 130.476562 133.816406 130.183594 134.039062 129.855469 134.214844 C 128.792969 135.136719 127.734375 136.066406 126.671875 136.984375 C 125.363281 138.121094 125.796875 139.027344 126.234375 140.164062 C 130.054688 149.871094 133.933594 159.578125 137.660156 169.316406 C 137.742188 169.679688 137.890625 170.015625 138.105469 170.324219 C 138.316406 170.628906 138.582031 170.882812 138.894531 171.089844 C 139.207031 171.292969 139.546875 171.429688 139.914062 171.503906 C 140.28125 171.574219 140.644531 171.574219 141.011719 171.5 L 143.199219 171.414062 L 151.042969 171.152344 C 159.644531 170.832031 168.269531 170.570312 176.898438 170.304688 L 182.378906 170.132812 C 185.4375 170.054688 188.554688 169.910156 191.847656 169.78125 Z M 212.492188 154.058594 C 212.628906 153.152344 212.695312 152.242188 212.695312 151.328125 C 212.429688 108.738281 212.546875 66.117188 212.546875 23.5 L 212.546875 15.261719 C 193.421875 22.695312 175.523438 29.835938 157.449219 36.542969 C 156.933594 36.65625 156.433594 36.816406 155.949219 37.023438 C 155.460938 37.230469 155 37.480469 154.5625 37.777344 C 154.125 38.070312 153.71875 38.402344 153.339844 38.773438 C 152.964844 39.144531 152.628906 39.546875 152.328125 39.980469 C 152.027344 40.414062 151.769531 40.871094 151.554688 41.355469 C 151.34375 41.835938 151.175781 42.335938 151.054688 42.851562 C 150.933594 43.363281 150.863281 43.882812 150.839844 44.410156 C 150.816406 44.9375 150.84375 45.464844 150.917969 45.988281 C 151.03125 65.808594 151.066406 85.574219 151.066406 105.398438 L 168.90625 90.117188 C 172.191406 98.472656 175.476562 106.828125 178.757812 115.1875 C 179.925781 118.101562 181.0625 121.015625 182.199219 123.933594 C 187.457031 137.308594 192.71875 150.683594 197.988281 164.058594 L 212.660156 154.589844 C 212.613281 154.417969 212.539062 154.246094 212.492188 154.070312 Z M 196.125 40.550781 L 165.164062 51.976562 C 164.613281 52.144531 164.113281 52.40625 163.664062 52.765625 C 163.214844 53.125 162.847656 53.558594 162.5625 54.058594 C 162.277344 54.558594 162.097656 55.09375 162.019531 55.664062 C 161.941406 56.234375 161.972656 56.800781 162.109375 57.359375 C 162.1875 57.632812 162.292969 57.898438 162.421875 58.15625 C 162.554688 58.410156 162.707031 58.648438 162.882812 58.875 C 163.0625 59.101562 163.257812 59.308594 163.476562 59.492188 C 163.691406 59.679688 163.925781 59.84375 164.175781 59.984375 C 164.421875 60.128906 164.683594 60.242188 164.957031 60.335938 C 165.226562 60.425781 165.503906 60.488281 165.789062 60.523438 C 166.074219 60.5625 166.359375 60.570312 166.644531 60.550781 C 166.929688 60.53125 167.210938 60.484375 167.488281 60.410156 L 198.449219 48.984375 C 198.996094 48.816406 199.496094 48.550781 199.945312 48.191406 C 200.394531 47.832031 200.761719 47.402344 201.046875 46.902344 C 201.328125 46.402344 201.511719 45.867188 201.589844 45.296875 C 201.667969 44.726562 201.636719 44.164062 201.496094 43.605469 C 201.417969 43.328125 201.316406 43.0625 201.183594 42.808594 C 201.054688 42.554688 200.902344 42.3125 200.726562 42.089844 C 200.546875 41.863281 200.351562 41.65625 200.132812 41.46875 C 199.917969 41.285156 199.683594 41.121094 199.4375 40.976562 C 199.1875 40.835938 198.925781 40.71875 198.65625 40.628906 C 198.382812 40.539062 198.105469 40.476562 197.820312 40.4375 C 197.539062 40.402344 197.253906 40.390625 196.96875 40.410156 C 196.683594 40.429688 196.402344 40.476562 196.125 40.550781 Z M 196.125 40.550781 " fill-opacity="1" fill-rule="nonzero"/></g></svg>